# xmcd
#
# Track frame offsets: 
#        150
#        131320
#        147356
#        165343
#        176064
#        192641
#
# Disc length: 2781 seconds
#
# Revision: 2
# Processed by: cddbd v1.5.2PL0 Copyright (c) Steve Scherf et al.
# Submitted via: ExactAudioCopyFreeDBPlugin 1.0
#
DISCID=500adb06
DTITLE=Höhner - Höhner 4.0 - Live und in Farbe - CD 3: FeuerwerksMusik
DTITLE=Various Artist - Kölner Lichter 2012
DYEAR=2012
DGENRE=Kölsch
TTITLE0=Feuerwerksmusik
TTITLE1=I'm A Part Of It
TTITLE2=Der Narr
TTITLE3=Noch ens Kind sin
TTITLE4=Saach, dat Du mich magst
TTITLE5=Kumm halt mich fest
EXTD=
EXTT0=
EXTT1=
EXTT2=
EXTT3=
EXTT4=
EXTT5=
PLAYORDER=
